<?xml version="1.0" encoding="utf-8"?>
<!-- Generator: Adobe Illustrator 25.0.1, SVG Export Plug-In . SVG Version: 6.00 Build 0)  -->
<svg version="1.1" id="katman_1" xmlns="http://www.w3.org/2000/svg" xmlns:xlink="http://www.w3.org/1999/xlink" x="0px" y="0px"
	 viewBox="0 0 560 400" style="enable-background:new 0 0 560 400;" xml:space="preserve">
<style type="text/css">
	.st0{fill:#FFFFFF;}
	.st1{fill:#CEB888;}
	.st2{fill:#2C2A29;stroke:#2C2A29;stroke-width:1.102;stroke-miterlimit:22.0396;}
	.st3{fill:#782F40;}
</style>
<g transform="matrix(6.88738 0 0 -6.88738 -886.744 2729.43)">
	<path class="st0" d="M187.35,344.81c-0.02,0.01-4.09,3.26-4.31,3.47c6.3,4.43,10.16,11.74,10.16,19.47
		c0,13.1-10.66,23.76-23.76,23.76c-1.54,0-3.09-0.15-4.6-0.45c-0.78-0.05-2.14-0.2-3.16-0.62c-0.89-0.02-1.73-0.15-2.53-0.4
		c-0.8-0.19-1.44-0.6-2.05-0.99c-0.1-0.07-0.21-0.13-0.31-0.2c-0.04-0.03-0.08-0.06-0.12-0.09c-0.3-0.27-0.68-0.58-1.01-0.86
		c-0.57-0.47-0.88-0.72-1.03-0.94c-0.02-0.02-0.04-0.04-0.05-0.06c-0.09-0.1-0.23-0.25-0.35-0.31c-1.46-0.73-3.16-2.78-3.76-3.65
		c-0.04-0.06-0.96-1.4-1.29-1.95c-0.01-0.01-0.01-0.02-0.02-0.03c-0.02-0.04-2-3.65-2.77-5.79c-0.01-0.03-0.02-0.06-0.03-0.08
		c-0.09-0.35-0.14-0.8-0.18-1.2c-0.03-0.23-0.06-0.5-0.08-0.6c0-0.02-0.01-0.04-0.01-0.06c-0.01-0.04-0.02-0.11-0.04-0.21
		c-0.15-0.72-0.52-2.41-0.4-3.96c0.01-0.1,0.02-0.19,0.03-0.27c0.01-0.1,0.02-0.16,0.02-0.19c0-0.02,0-0.05,0-0.07
		c0-0.21-0.01-0.4-0.02-0.59c-0.03-0.57-0.06-1.12,0.08-1.87c0-0.01,0-0.02,0.01-0.03c0.06-0.81,0.16-1.63,0.3-2.44l0-0.06
		c0-0.03,0.01-0.06,0.01-0.1c0.29-1.58,0.68-3.44,1.36-5.2c0.1-0.39,0.48-1.78,0.7-2.26c0.07-0.14,0.17-0.26,0.29-0.34
		c0.35-1.29,0.87-2.33,1.59-3.15c0.17-0.19,0.41-0.29,0.65-0.29h0.03c0.35-0.42,0.7-0.77,1.01-1.05c0.01-0.01,0.02-0.02,0.03-0.02
		c0.38-0.32,0.77-0.64,1.21-0.92c0.14-0.08,0.3-0.13,0.45-0.13c0.06,0,0.11,0.01,0.17,0.02c4.34-3.91,10.01-6.11,15.89-6.11
		c1.77,0,3.56,0.2,5.3,0.6c0.68-0.23,1.34-0.44,2.01-0.64c2.12-0.62,4.41-0.94,6.81-0.94c2.04,0,3.39,0.23,3.44,0.24
		c0.34,0.06,0.62,0.32,0.69,0.66C187.77,344.25,187.64,344.61,187.35,344.81"/>
	<g transform="matrix(.8 0 0 -.8 148.023 389.031)">
		<path class="st1" d="M27.99-0.87c0.22,0.15,0.46,0.32,0.67,0.51c0.34,0.3,0.58,0.55,0.73,0.73c-0.02-0.08-0.03-0.18-0.05-0.26
			c-0.03-0.13-0.06-0.25-0.09-0.34c-0.01-0.02-0.01-0.04-0.02-0.06L28.98-0.8C28.65-0.83,28.32-0.85,27.99-0.87L27.99-0.87z
			 M29.01-0.8l0.38,0.39c0.21,0.22,0.54,0.69,0.81,1.16c0.04,0.07,0.09,0.15,0.13,0.22h0c12.6,1.75,22.31,12.56,22.31,25.64
			c0,9.89-5.55,18.49-13.7,22.85c0.5,0.29,1.05,0.59,1.7,0.91c8.15-4.78,13.62-13.63,13.62-23.75C54.26,12.18,43.15,0.35,29.01-0.8
			L29.01-0.8z M39.94,14.32c-0.27,0.16-0.54,0.32-0.8,0.5c-0.09,0.06-0.17,0.12-0.26,0.19c-0.1,0.07-0.2,0.14-0.3,0.22
			c-0.08,0.06-0.15,0.13-0.23,0.19c-0.1,0.08-0.2,0.16-0.3,0.25c-0.07,0.06-0.14,0.12-0.2,0.18c-0.1,0.09-0.21,0.19-0.31,0.29
			c-0.06,0.06-0.12,0.12-0.18,0.18c-0.1,0.1-0.2,0.21-0.3,0.32c-0.06,0.06-0.1,0.12-0.16,0.18c-0.04,0.04-0.08,0.09-0.12,0.13
			c0.05,0.06,0.11,0.12,0.17,0.18l0.53,0.65c0.96-1.16,2.15-2.1,3.48-2.78c-0.1-0.07-0.2-0.14-0.3-0.22h0l0,0c0,0,0,0-0.01,0
			c-0.06-0.04-0.12-0.08-0.17-0.12C40.3,14.54,40.13,14.43,39.94,14.32L39.94,14.32z M34.75,18.46c-2.39,1.8-4.23,4.32-5.22,7.15
			c-0.23,0.65-0.41,1.32-0.54,2c0.36,0.03,0.86-0.46,1.45-1.23c0.98-2.76,2.74-5.23,5.01-7.08C35.27,19.03,35.02,18.75,34.75,18.46
			L34.75,18.46z M7.7,26.2c-2.96,0-5.37,2.4-5.37,5.37c0,2.22,1.35,4.13,3.28,4.95c0.64,0.27,1.35,0.42,2.09,0.42
			c0.47,0,0.93-0.06,1.37-0.18c0.21-0.05,0.42-0.12,0.62-0.2c-0.15-0.25-0.33-0.51-0.55-0.75c-0.45,0.15-0.92,0.23-1.42,0.23
			c-1.34,0-2.54-0.59-3.35-1.53c0.78,0.68,1.8,1.1,2.92,1.1c0.56,0,1.09-0.11,1.58-0.29c0.33-0.13,0.65-0.29,0.94-0.49
			c0.15,0.14,0.3,0.28,0.45,0.42c0.22,0.21,0.44,0.42,0.65,0.63h0c0.95,0.93,1.76,1.78,1.76,1.78c-0.1,0.73,0.02,1.54,0.02,1.54
			c0.38-0.47,0.82-0.55,0.82-0.55c0.05,0.57,0.26,1.22,0.26,1.22c0.07-0.35,0.38-0.62,0.38-0.62c4.14,4.17,9.06,7.57,14.37,10.38
			c8.11,4.3,14.74,5.62,14.74,5.62l0.06-0.09c0,0-7.79-2.19-17-7.78l0.14-0.04c7.14,3.29,12,4.15,13.55,3.68l-1.31-0.67
			c-0.06-0.03-0.12-0.07-0.18-0.1c-0.04-0.02-0.08-0.05-0.12-0.08c-0.02-0.01-0.04-0.02-0.06-0.03c-0.06-0.03-0.11-0.07-0.17-0.11
			c0,0-0.01-0.01-0.02-0.01c-0.06-0.04-0.12-0.08-0.19-0.13c-0.01-0.01-0.02-0.02-0.03-0.02c-0.05-0.03-0.09-0.07-0.14-0.1
			c-0.02-0.02-0.05-0.03-0.07-0.05c-0.04-0.03-0.07-0.06-0.11-0.08c-0.02-0.02-0.05-0.03-0.07-0.05c-0.05-0.03-0.09-0.07-0.14-0.1
			c-0.05-0.04-0.1-0.08-0.15-0.11c-0.02-0.02-0.04-0.03-0.07-0.05c-0.08-0.06-0.17-0.13-0.26-0.19c-0.01,0-0.01-0.01-0.02-0.01
			c-0.15-0.11-0.3-0.22-0.46-0.34c-0.02-0.02-0.04-0.03-0.06-0.05c-0.06-0.04-0.12-0.09-0.18-0.13c-0.02-0.02-0.05-0.04-0.07-0.05
			c-0.08-0.06-0.17-0.12-0.26-0.18h0c-0.09-0.06-0.18-0.12-0.27-0.19c-0.03-0.02-0.05-0.04-0.08-0.06c-0.07-0.05-0.14-0.1-0.21-0.14
			c-0.03-0.02-0.06-0.04-0.09-0.06c-0.1-0.07-0.2-0.13-0.31-0.2c-0.63-0.41-1.01-0.69-1.63-1.14c-0.72,0.15-1.5,0.22-2.31,0.23
			c-0.14,0-0.28,0-0.43,0h0c-0.14,0-0.28,0-0.43,0h-0.01c-0.14,0-0.28-0.01-0.42-0.01c0,0-0.01,0-0.01,0
			c-0.14,0-0.28-0.01-0.42-0.02c-0.01,0-0.01,0-0.02,0c-0.14-0.01-0.27-0.01-0.41-0.02c-0.01,0-0.02,0-0.03,0
			c-0.13-0.01-0.26-0.02-0.4-0.03c-0.02,0-0.03,0-0.05,0c-0.13-0.01-0.25-0.02-0.38-0.03c-0.02,0-0.04,0-0.07-0.01
			c-0.12-0.01-0.24-0.02-0.36-0.03c-0.03,0-0.07-0.01-0.11-0.01c-0.1-0.01-0.21-0.02-0.31-0.03c-0.07-0.01-0.13-0.01-0.19-0.02
			l-0.22-0.02c-0.14-0.02-0.27-0.03-0.41-0.05c-0.18-0.02-1.76-0.41-1.89-0.53c1.51,0.4,3.87-0.33,5.41-1.05l0.54-0.31
			c-1.07-0.74-2.51-1.58-3.6-2.29c0,0-2.31,0.57-4.51,0.17c-1.85-0.34-4.42-1.52-4.42-1.52s2.33,0.49,6.48-0.41
			c-1.48-1.23-2.47-1.91-4.22-2.88c-2.13-1.35-4.17-0.97-6.39-0.6l-0.07-0.15c0.36-0.62,0.68-0.94,1.36-1.26
			c-0.84-0.02-1.49,0.2-2.16,0.64c-0.11-0.11-0.21-0.23-0.33-0.34c0,0-0.29-0.29-0.83-0.78c0.13-0.15,0.26-0.3,0.37-0.46l0.01,0
			c0.13-0.18,0.25-0.37,0.35-0.57c0.41-0.76,0.65-1.63,0.65-2.56c0-1.94-1.04-3.65-2.59-4.59C9.68,26.48,8.73,26.19,7.7,26.2
			L7.7,26.2z M9.31,45.75c0.01,0.12,0.02,0.23,0.06,0.33c0.15,0.4,0.33,0.67,0.36,1.12c0.02,0.23,0,0.48,0,0.71
			c0,0.12-0.01,0.21-0.03,0.3c4.69,3.71,10.62,5.93,17.06,5.93c1.61,0,3.19-0.14,4.73-0.41c-1.02-0.4-2.01-0.82-2.99-1.27
			c-0.57,0.04-1.15,0.06-1.74,0.06C20.03,52.51,13.91,49.95,9.31,45.75L9.31,45.75z"/>
		<path class="st2" d="M26.75-2.01c-1.92,0-3.81,0.19-5.63,0.56c-1.28,0.08-2.83,0.3-3.84,0.77c-1.1,0-2.14,0.16-3.11,0.47
			c-0.99,0.23-1.81,0.83-2.67,1.36c-0.98,0.87-2.47,2.02-2.39,2.09c-0.1,0.05-0.43,0.55-0.91,0.79C6.72,4.77,4.76,7.01,3.93,8.23
			c0,0-1.17,1.72-1.59,2.39c-0.46,0.83-2.56,4.76-3.39,7.08c-0.16,0.65-0.23,1.8-0.33,2.24c-0.06,0.39-0.7,2.86-0.54,4.95
			c0.03,0.33,0.08,0.53,0.05,0.78c-0.02,1.08-0.15,1.75,0.06,2.84c0-0.01,0-0.02,0.01-0.03c0.07,1.1,0.2,2.19,0.4,3.26
			c0,0.02,0,0.04,0,0.06c0.4,2.19,0.88,4.34,1.67,6.37c0,0,0.56,2.14,0.82,2.7c0.23,0.25,0.42,0.28,0.48,0.54
			c0.33,1.49,0.68,2.4,1.7,3.56c0.1,0.08,0.2,0.1,0.29,0.1c0.11,0,0.2-0.04,0.28-0.04c0.03,0,0.06,0.01,0.09,0.03
			c0.73,1.11,0.26,0.51,1.36,1.5c0.45,0.38,0.9,0.76,1.39,1.05c0.05,0.02,0.29,0.09,0.51,0.09c0.07,0,0.15-0.01,0.21-0.02
			c5.1,4.69,11.9,7.55,19.35,7.55c2.3,0,4.54-0.28,6.69-0.79c-0.67-0.23-1.33-0.47-1.97-0.72c-1.54,0.26-3.11,0.4-4.73,0.4
			c-6.44,0-12.37-2.21-17.06-5.93c0.02-0.08,0.03-0.18,0.03-0.3c0-0.23,0.02-0.47,0-0.71c-0.03-0.45-0.21-0.73-0.36-1.12
			c-0.04-0.1-0.05-0.21-0.06-0.33c4.6,4.2,10.73,6.76,17.45,6.76c0.58,0,1.16-0.02,1.74-0.06c-0.73-0.34-1.44-0.69-2.15-1.06
			c-0.53-0.01-1.05-0.03-1.57-0.07c-1.54-0.86-3.07-1.81-4.61-2.88c-3.56-2.45-5.58-4.99-5.6-5.02c-0.38,0.94-0.64,1.97-0.64,1.97h0
			l-0.76-1.23c-0.29-0.44-0.44-1.07-0.55-1.73l-0.92,1.47c0,0-0.35-1.78-0.35-1.78s-0.19-1.5-0.21-2.12
			c-0.02,0.03-1.11,0.95-1.11,0.95h0L9.94,39.5c0-0.02-0.01-1.42-0.86-2.75c-0.44,0.11-0.89,0.18-1.37,0.18
			c-0.74,0-1.45-0.15-2.09-0.42c-1.93-0.81-3.28-2.72-3.28-4.95c0-2.96,2.4-5.37,5.37-5.37c1.02,0,1.97,0.29,2.78,0.78
			c1.55,0.94,2.59,2.65,2.59,4.59c0,0.93-0.23,1.8-0.65,2.56c0.33,0.29,0.6,0.54,0.8,0.73c0.5-0.19,1.01-0.3,1.55-0.32
			c0.12-0.01,0.24-0.01,0.37,0l0.25,1.13c0.09,0,0.17,0,0.26,0c0.25-0.03,0.5-0.05,0.74-0.06c0.43-0.02,0.86,0,1.28,0.03
			c0.02-0.17,0.11-0.33,0.24-0.53c0.26-0.41,0.63-0.71,0.86-1.15c0.21-0.39,0.63-1.23,0.84-1.62c0.08-0.16,0.18-0.31,0.23-0.48
			c0.06,0.01,0.62,0.03,0.81,0.18c0.03,0.02,0.05,0.05,0.06,0.07c0.08,0.21,0.2,0.39,0.34,0.55c0.62,0.69,1.71,0.92,2.01,0.84
			c0.24-0.07,0.49-0.01,0.7,0.14h0c0.02,0.01,0.04,0.03,0.06,0.05c0.1,0.08,0.18,0.18,0.25,0.29c0.08,0.13,0.3,0.44,0.49,0.77
			c0.79,1.38,4.68,5.78,6.08,7.11c0.05,0.05,0.09,0.09,0.13,0.12c0,0,0.01,0,0.01,0.01c0.13,0.12,0.23,0.2,0.29,0.24
			c0.6,0.35,1.28,0.52,1.92,0.18c0.39-0.2,0.56-0.59,0.79-0.93c0.09-0.13,0.18-0.26,0.27-0.39c0.17-0.22,0.36-0.45,0.6-0.59
			c0.16-0.1,4.45-0.87,4.95-0.94c0.59-0.08,1.03-0.19,1.5-0.29c0.51-0.12,1.92-0.34,2.18-0.54c-0.01-0.03-0.05-0.02-0.08-0.02
			l-0.18,0.03c-0.16,0.02-0.1,0.01-0.28,0.02c-2.13,0.14-4.09-0.3-6.06-0.61l-3.08-0.34c-0.54-0.08-1.16-0.04-1.67-0.12l-0.02,0.02
			c-1.28-0.07-2.51-0.28-3.57-0.87c-0.53-0.32-1.05-0.72-1.5-1.18c-0.45-0.45-0.82-0.96-1.04-1.5c-0.26-0.45-0.79-1.69-0.89-2.2
			c0,0,0.42-0.52,0.46-1.06c-0.74,0.47-1.43,0.87-2.3,0.71c-0.16-0.03-0.33-0.08-0.51-0.15c-0.27-0.22-0.57-0.48-0.89-0.7
			c-0.3-0.21-0.63-0.38-0.97-0.43c-1.3-0.23-1.47-0.02-2.08-0.57c1.21-3.33,1.85-1.48,3.29-4.36c0.11,0.14,0.12,0.33,0.23,0.47
			c0.04,0.05,0.09,0.09,0.16,0.12c0.39,0.08,0.75,0.24,1.05,0.52c0.04,0.03,0.08,0.07,0.12,0.11c0,0,0.01,0.01,0.01,0.01
			c0.14-0.93,0.23-1.88,0.52-2.75c-0.04-0.09,0.05-0.16,0.02-0.23c-0.02-0.08-0.12-0.24-0.21-0.37c-0.07-0.1-0.13-0.17-0.13-0.17
			s-0.02-0.04-0.04-0.09v0l-0.01-0.01c-0.02-0.04-0.04-0.08-0.06-0.1l0,0c-0.01-0.01-0.01-0.01-0.02-0.02
			c-0.05-0.03-0.37-0.48-0.39-0.5c-0.19-0.46-0.59-0.85-0.87-1.25c0,0,0,0.01,0,0.01c-0.53-1.29-1.03-1.97-1.33-2.29
			c0,0,0-0.01-0.01-0.01c-0.02-0.02-0.03-0.04-0.05-0.05c-0.02-0.02-0.03-0.04-0.05-0.05l0,0c0,0-0.01-0.01-0.01-0.01
			c-0.02-0.03-0.05-0.06-0.08-0.08c0,0-0.72-0.6-0.85-0.66c0.51,1.82,0,4.08-0.15,4.79l0,0c-0.16-0.21-0.16-3.08-0.25-3.34
			c-0.12,1.01-0.17,3.83-1.55,5.02c0.22-0.86,1.14-3.77,1.15-3.81c-0.16,0.27-0.82,1.74-1.21,1.82c0.76-2.5,1.15-4.44,1.13-4.61
			c-0.22,0.36-0.49,0.96-0.57,1.38c-0.12-0.64,0.17-1.27,0.36-1.87l-0.08-0.32c0.02-0.03,0.04-0.05,0.05-0.06
			c-0.13-0.13-0.26-0.28-0.39-0.43c-0.03-0.03-0.06-0.07-0.08-0.11c-0.03-0.04-0.06-0.08-0.1-0.12h0c-0.06-0.08-0.11-0.16-0.17-0.24
			c0-0.01-0.01-0.01-0.01-0.02c-0.01-0.02-0.02-0.03-0.03-0.05c-0.05-0.08-0.1-0.15-0.15-0.23c-0.1-0.17-0.19-0.33-0.27-0.49
			c0,0,0-0.01,0.01-0.01l-0.03-0.03v0c-0.01-0.01-0.01-0.03-0.02-0.04c-0.28-0.57-0.44-1.14-0.47-1.84c0-0.08,0.01-0.18,0-0.23
			c0.05-0.04,0.02-0.1,0.03-0.15c-0.01-0.01-0.02-0.02-0.03-0.02c0.01-0.24,0.03-0.51,0.06-0.79c0.01-0.07,0.02-0.13,0.04-0.19
			c0.05-0.16,0.1-0.33,0.12-0.49c0.01-0.03,0.02-0.05,0.03-0.08c0.07-0.16,0.13-0.24,0.23-0.39c0.05-0.08,0.13-0.15,0.18-0.24
			c0.16-0.26,0.38-0.42,0.57-0.65c0.16-0.13,0.31-0.25,0.47-0.38c0.07-0.05,0.13-0.09,0.17-0.12c0.1-0.07,0.17-0.14,0.23-0.2
			c0.17-0.14,0.35-0.27,0.52-0.41c0-0.01,0-0.01,0-0.02c0.21-0.13,0.7-0.42,1.36-0.81l0.05-0.02l-0.01,0v0
			c0.38-0.22,0.25-0.21,0.59-0.49c0.03-0.02,0.05-0.04,0.08-0.07c0,0,0.01,0,0.01,0l0,0c0.24-0.2,0.3-0.25,0.61-0.45
			c0.37-0.24,0.44-0.26,0.85-0.38c0.12-0.03,0.56-0.27,0.73-0.3c-0.01,0.01,0.12-0.05,0.25-0.11c0.06-0.02,0.12-0.04,0.18-0.08
			c0.07-0.03,0.13-0.06,0.12-0.05c0.48-0.15,0.65-0.15,1.2-0.22l0.05,0l0,0c0.02,0,0.04-0.01,0.06-0.01
			c0.8-0.11,1.33-0.24,2.08-0.25c-0.01-0.01-0.01-0.01-0.01-0.02c-0.02-0.04,0.05-0.03,0.3-0.04c0.01,0,0.01-0.03,0-0.07
			c0.01,0.02,0.02,0.03,0.04,0.05c0.01-0.01,0.02-0.02,0.04-0.04c-0.75-1.39-1.2-2.66-2.56-3.58c1.56,0.75,2.71,2.08,3.51,3.64
			c0.04-0.01,0.06,0.05,0.11,0.03c0.05-0.06,0.03-0.11-0.01-0.16c-0.01-0.01-0.02-0.02-0.02-0.04c-0.02-0.03-0.03-0.06-0.03-0.09
			c-0.12-0.32-0.23-0.62-0.34-0.91c-0.26-0.68-0.53-1.3-0.99-1.99c-0.33-0.33-0.56-0.75-0.82-1.05c0.63,0.45,1.24,1.06,1.77,1.67h0
			c0,0.02,0.01,0.03,0.02,0.04c0.05,0.1,0.15,0.18,0.18,0.29c0.04,0.05,0.07,0.1,0.1,0.15c0.01,0.01,0.01,0.02,0.02,0.03
			c0.04,0.08,0.08,0.15,0.15,0.2c0-0.56-0.1-0.9-0.23-1.13c-0.22-0.38-0.57-0.45-0.83-0.7c-0.02-0.04-0.04-0.08-0.06-0.14
			c-0.13-0.38-0.28-1.12-0.55-1.8c-0.18-0.47-0.42-0.91-0.74-1.17c0.61,0.38,1.44,0.87,1.79,1.52c0.13,0.23,0.31,0.56,0.49,0.97
			c0.32,0.74,0.62,1.77,0.55,3.13c0.17-0.24,0.19-0.54,0.28-0.82c0.19-0.89,0.1-1.93-0.02-2.82c0.55,1.15,0.78,2.21,0.63,3.63
			l0.03,0.02c0.39-0.33,0.46-0.58,0.7-0.98c-0.2,0.84-0.47,1.66-1.05,2.34l0.1,0.1c2.27,0.98,4.33,2.51,6.19,4.44
			c0.08,0.12,0.16,0.23,0.22,0.36c0.13,0.28,0.2,0.59,0.12,0.93c0,0.32-0.36,0.88-0.21,1.19c0.03,0.06,0.07,0.1,0.14,0.14
			c0.36,0.19,1.61,0.4,2.24,0.75c0.05,0.03,0.1,0.06,0.15,0.08c0.05,0.03,0.1,0.05,0.15,0.08c0,0,0.01,0,0.01,0
			c0.06,0.03,0.11,0.06,0.17,0.09c0.03,0.02,0.06,0.04,0.09,0.05l0,0c0,0,0,0,0.01,0c0.05,0.03,0.1,0.06,0.15,0.09
			c0.04,0.02,0.08,0.05,0.12,0.07c0.08,0.05,0.15,0.09,0.23,0.14c0.04,0.02,0.07,0.05,0.11,0.07c0.05,0.03,0.1,0.06,0.14,0.09
			c0.01,0.01,0.02,0.01,0.03,0.02c0.06,0.04,0.12,0.07,0.17,0.11l0.01,0.01h0c0.09,0.06,0.18,0.12,0.26,0.18
			c0.01,0.01,0.01,0.01,0.02,0.01c0.09,0.06,0.17,0.13,0.26,0.19c0,0,0,0,0,0c0.01,0.01,0.03,0.02,0.04,0.03
			c0.1,0.07,0.19,0.15,0.29,0.23c0.02,0.01,0.03,0.03,0.05,0.05l0.29,0.24c0.72,0.61,1.44,1.3,2.37,2.12
			c0.01,0.01,0.02,0.02,0.03,0.03v0c0,0,0,0,0.01,0.01c0.12,0.15,0.33,0.45,0.33,0.77c0,0.08-0.01,0.16-0.04,0.25
			c-0.29,0.84-0.98,0.74-1.44,1.5c-0.22,0.28-0.53,0.74-0.59,0.86c0.13,0.72,0.38,0.83,0.55,1.02c0.19,0.22,0.51,0.39,0.59,0.64
			c0.03,0.08,0.03,0.17,0,0.27c-0.11,0.23-0.19,0.48-0.23,0.74c-2.26,0.4-4.24,2.11-4.24,2.11l-0.05,0.08
			c-0.03,1.48-0.11,3.37,0.25,4.79c0.04,0.15,0.09,0.31,0.14,0.45c0.07,0.25,0.14,0.49,0.22,0.73c0.32,0.94,0.74,1.81,1.27,2.65
			c0.3,0.48,0.64,0.95,1.02,1.41l0.67,0.79c-0.42-0.95-1.15-2.15-1.73-3.32c-0.14-0.27-0.26-0.55-0.38-0.81
			c-0.18-0.42-0.33-0.82-0.42-1.19c1.08,0.52,2.24,0.76,3.5,0.85c0.44,0.13,0.79,0.23,0.93,0.71c-0.03,0.18-0.12,0.33-0.23,0.48
			c-0.33,0.52-0.27,1.29,0.05,1.8c0.04,0.05,0.08,0.11,0.11,0.16c0.01,0.01,0.01,0.02,0.02,0.03c0,0,0,0.01,0,0.01
			c0.3,0.44,0.52,0.9,0.73,1.37c0.01,0.03,0.01,0.05,0.02,0.08c0.05,0.31-0.06,0.6-0.2,0.85c-0.63,0.6-1.32,1.06-2.13,1.23
			c-2.94,0.66-5.95,1.18-8.39,3.03c-0.35,0.26-0.68,0.57-1.02,0.85c-0.33,0.28-0.65,0.57-0.9,0.91c-0.05,0.07-0.11,0.15-0.16,0.24
			l0.03,0.02l0.02,0.01v0.45c0.2-0.23,0.38-0.49,0.64-0.63c0.01,0.01,0.01,0.02,0.02,0.02c-0.08,0.12-0.15,0.24-0.22,0.37
			c-0.24,0.46-0.29,0.96-0.28,1.46l0.19-0.04c0.04,0,0.08-0.01,0.11-0.02c0.28-0.06,0.4-0.23,0.4-0.23
			c0.19,0.13,0.38,0.25,0.56,0.38l0-0.01c0.19-0.98,0.41-2.19,0.95-2.72l0,0c0.57-0.57,1.85-1.26,3.61-1.94
			c1.59-0.62,5.91-1.65,6.34-1.92c0.19-0.13,1.02-0.45,1.38-1.36l0.05-0.12c0.29-0.73,0.33-0.84-0.46-1.91
			c-0.74-0.99-0.5-1.49-0.39-1.73c0.01-0.01,0.01-0.03,0.02-0.04c0.01-0.03,0.04-0.08,0.07-0.13c0.22-0.37,0.4-0.78,0.29-1.13
			c-0.01-0.02-0.01-0.04-0.02-0.07c0-0.01-0.01-0.02-0.01-0.03c-0.06-0.13-0.16-0.24-0.32-0.35c-0.65-0.44-1.19-0.65-1.48-0.69
			c-0.01,0-0.02,0-0.03,0c-0.01,0-0.02,0-0.03,0c-0.08-0.01-0.13-0.02-0.17-0.04c-0.05-0.04-0.09-0.1-0.13-0.17c0,0,0,0,0,0
			c-0.01-0.01-0.01-0.02-0.02-0.04c-0.02-0.04-0.03-0.08-0.04-0.12c0,0,0-0.01,0-0.01c-0.01-0.03-0.02-0.06-0.03-0.08
			c-0.03-0.09-0.06-0.18-0.11-0.26c-0.03-0.03-0.08-0.06-0.13-0.09c-0.24-0.12-0.65-0.2-0.88-0.21c-0.03,0-0.05,0-0.08,0
			c-0.04,0-0.09-0.01-0.14-0.02c0,0,0,0,0,0c-0.01,0-0.02-0.01-0.04-0.01c0,0-0.01,0-0.01-0.01c-0.01,0-0.01,0-0.01,0
			c-0.2-0.08-0.41-0.22-0.45-0.22l-1.27-0.32c-0.29-0.19-0.42-0.31-0.47-0.49c0-0.01,0-0.02-0.01-0.03c0-0.01-0.01-0.03-0.01-0.04
			c-0.03-0.18-0.01-0.42,0-0.81c0.01-0.88-0.05-1.06,0.04-1.13c0,0,0.25,0.07,0.55,0c0.29-0.07,1.03-0.35,1.1-0.52
			c0,0,1.49-0.58,1.55-1.04c0.06-0.44-0.03-0.81-0.06-0.89c0-0.01,0-0.02,0-0.02l-0.04-0.08l0.08-0.04c0.08-0.04,0.83-0.37,1.01-0.4
			c0.18-0.03,0.35-0.09,0.41-0.41c0.04-0.2,0.1-0.46,0.15-0.67c0.04-0.15,0.08-0.32,0.08-0.36c-0.02-0.07-0.21-0.5-0.44-0.79
			c-0.15-0.19-0.5-0.61-0.5-1c0-0.13,0.03-0.26,0.12-0.37c0.31-0.39,1.17-1.14,1.34-1.29c0.4-0.36,0.45-1.11,0.14-1.63
			c-0.1-0.17-0.27-0.38-0.48-0.62c-0.76-0.86-2.07-2.03-2.7-2.56c-0.68-0.57-2.68-1.73-3.21-2c-0.08-0.04-0.16-0.07-0.24-0.11
			c-0.29-0.13-0.57-0.19-0.68-0.37c-0.05-0.08-0.06-0.19-0.03-0.35c0.02-0.09,0.04-0.18,0.06-0.25c0.09-0.31,0.15-0.53-0.03-0.89
			c-0.03-0.05-0.06-0.1-0.09-0.16c-0.38-0.61-1.67-1.95-2.5-2.61C34.78,7.6,32,5.82,32,5.82h0L32.32,5
			c0.01-0.06,0.03-0.17,0.02-0.17c0.05-0.25,0.13-0.62,0.15-0.83c0.01,0,0.02-0.09,0.02-0.11c0,0,0,0,0,0
			c0.02-0.29,0.03-0.63,0.01-0.84c-0.01-0.07-0.03-0.13-0.04-0.2c-0.01-0.03-0.01-0.05-0.02-0.08l-0.1,0.01v0c0-0.01,0-0.02,0-0.02
			c-0.01-0.1-0.02-0.19-0.04-0.27C43.3,5,51.53,14.86,51.53,26.61v0c0,6.51-2.53,12.44-6.65,16.87c-2,2.15-4.39,3.95-7.04,5.28
			c0.34,0.23,0.7,0.46,1.1,0.7c8.15-4.36,13.7-12.95,13.7-22.85c0-13.08-9.71-23.9-22.31-25.64c-0.04-0.07-0.08-0.15-0.13-0.22
			c-0.28-0.46-0.61-0.94-0.82-1.16L29.01-0.8c14.14,1.15,25.25,12.99,25.25,27.42c0,10.13-5.47,18.97-13.62,23.75
			c0.36,0.17,0.79,0.38,1.2,0.56c0,0,0.03-0.02,0.08-0.05c0.16-0.1,0.32-0.2,0.48-0.31c0.07-0.04,0.13-0.09,0.2-0.13
			c0.25-0.17,0.51-0.34,0.76-0.52c0.46-0.33,0.91-0.67,1.35-1.02c0.21-0.16,0.41-0.33,0.61-0.5c0.2-0.17,0.4-0.34,0.6-0.52
			c0.28-0.24,0.54-0.49,0.81-0.75c0.26-0.25,0.53-0.52,0.78-0.78c0.31-0.32,0.61-0.65,0.9-0.98c0.41-0.47,0.81-0.95,1.19-1.44
			c3.66-4.78,5.79-10.74,5.79-17.32C55.37,10.84,42.53-2,26.75-2.01L26.75-2.01z M27.99-0.87c0.33,0.02,0.66,0.03,0.99,0.06
			l0.24,0.52c0.01,0.02,0.02,0.03,0.02,0.06c0.03,0.09,0.07,0.21,0.09,0.35c0.02,0.09,0.04,0.17,0.05,0.26
			C29.24,0.19,29-0.06,28.66-0.36C28.45-0.54,28.21-0.72,27.99-0.87z M32.42,10.15c-0.07,0.01-0.12,0.03-0.14,0.07
			c-0.05,0.07,0.43,0.4,0.55,0.56c-0.04-0.05-0.88-0.28-0.95-0.28c-0.23-0.01-0.47,0.01-0.7,0.05c-0.49,0.08-3.57,1.95-3.82,2.07
			c0.01,0.75,1.99-0.14,2.35-0.31c-0.9,0.44-3.31,2.43-3.74,3.35c0.82-0.05,2.23-1.17,2.74-1.32c0.71-0.21,0.26,1.04,0.26,1.04
			s-0.8,0.54,0.37,0.42c0.29-0.03,0.13,0.06,0,0.25c-0.23,0.31-0.36,0.69-0.28,0.74c0.23-0.1,0.4-0.19,0.51-0.26
			c0.59-0.23,1.66-0.58,2.22-0.72l0.03,0.03c-0.56,0.35-1.18,0.54-1.75,0.87v0.05c0.23,0.1,0.03,0.26-0.13,0.36
			c-1.26,1.25-2.29,2.56-2.82,4.21c0.34-0.45,0.59-0.96,1-1.39c0.64-1.08,1.4-2.19,2.54-2.85c1.17-0.88,2.57-1.23,4.06-1.39
			c0.06,0.03,0.17,0.04,0.2,0c-0.11-0.08-0.26-0.08-0.38-0.16c-0.03-0.02-0.05-0.04-0.06-0.06c-0.02-0.04-0.02-0.08-0.06-0.13
			c-0.09-0.11-0.28-0.07-0.38-0.17c-0.09-0.08-0.14-0.26-0.1-0.38c0.05-0.19,0.3-0.07,0.45-0.12c0.05-0.03,0.46-0.17,0.46-0.17
			c-0.37-0.44-1.16-0.24-1.39-0.12c-0.69,0.22-1.42,0.35-2.03,0.77l-0.02-0.03c0.27-0.38-0.69,0.15-1.42,0.84
			c0-0.08-0.1-0.21-0.36-0.62c0.05-0.54,0.4-1.02,0.72-1.49C31.1,13,33.02,12.15,33,12.25c0.32,0.31,0.72,0.52,1.03,0.9
			c0.13,0.16,0.19,0.34,0.26,0.54c0.13-0.53,0.74-0.68,1.13-0.93c-0.08,0.05-0.43-0.09-0.53-0.11c-0.01-0.21,0.1-0.29,0.25-0.39
			c0.13-0.08,0.18-0.41,0.18-0.54c0-0.17,0-0.4-0.13-0.5C34.36,10.58,32.9,10.07,32.42,10.15L32.42,10.15z M34.53,16
			c-0.03,0.01-0.05,0.04-0.07,0.04c0.79,0.92,1.87,1.78,2.43,2.82c0,0,0.8,1.1,0.98,2.26c0.35,1.56,0.26,3.27,0.15,4.85
			c-0.06,1.47-0.02,2.27,0.16,3.53c0.24,1.56,0.51,2.22,0.9,3.04c-0.08-0.23-0.1-0.77-0.1-0.77c-0.37-1.79-0.75-4.05-0.46-5.65
			c0.22-1.5,0.41-3.2,0-4.67c0.12-0.28,0.59,0.07,0.71,0.1c0.34,0.05,0.38,0.14,1.59-0.72c0.44-0.4,1.18-0.12,1.54-0.64
			c0.04-0.08,0.04-0.23-0.05-0.26c-0.81-0.19-1.41,0.32-2.03,0.87c-0.58,0.31-1.21-0.05-1.73-0.33c-0.41-0.28-0.46-0.42-0.5-0.89
			c-0.48-0.72-0.98-1.3-0.98-1.3l-0.62-0.75c-0.7-0.79-1.29-1.08-1.29-1.08l-0.56-0.46C34.59,15.98,34.56,15.98,34.53,16L34.53,16z
			 M41.07,17.35c-0.16-0.03-0.32,0.07-0.44,0.16c-0.11,0.09-0.24,0.16-0.35,0.25c-0.07,0.06-0.2,0.13-0.21,0.23
			c0-0.06,0.68,0.17,0.73,0.19c0.24,0.1,0.49,0.21,0.73,0.32c0.13,0.06,0.27,0.17,0.42,0.19c0.07,0.01,0.14-0.02,0.16-0.09
			c0.07-0.24-0.37-0.45-0.52-0.59c-0.11-0.1-0.24-0.17-0.32-0.3C41.21,17.62,41.21,17.37,41.07,17.35L41.07,17.35z M42.2,25.02
			c0.09,0.02,0.13,0.13,0.19,0.2c0.02,0.05,0.04,0.11,0.06,0.17c0.08,0.22,0.12,0.49-0.03,0.71c-0.16,0.19-0.48,0.24-0.73,0.19
			c-0.06,0.19-0.58,0.68-0.9,0.43c-0.81,0.84-1.14,0.2-1.25,0.09c0.23-0.24,0.41-0.65,0.81-0.6c0.24-0.29,0.41-0.68,1.04-0.7
			c0.14-0.32,0.47-0.33,0.69-0.48C42.13,25.01,42.17,25.01,42.2,25.02z M23.35,28.1c-0.35,0.29-0.56,0.73-0.61,1.18
			c0.15-0.17,0.22-0.39,0.43-0.51c0.18-0.04,0.3,0.04,0.41,0.18c0.04,0.19-0.04,0.4-0.2,0.54c-0.19,0.12-0.44,0.19-0.67,0.12
			c-0.28-0.09-0.52-0.27-0.79-0.38c-0.37-0.25-0.81-0.35-1.26-0.41l0.16,0.1c0.55,0.09,0.95,0.58,1.44,0.87
			c0.36,0.19,0.99,0.31,1.33,0c0.23-0.12,0.3-0.36,0.34-0.59C23.91,28.76,23.76,28.31,23.35,28.1L23.35,28.1z M40.29,30.67
			c0.21,0,0.36,0.1,0.43,0.3c0,0,0,0,0,0c0,0.01,0,0.01,0,0.02c0.04-0.02,0.07-0.05,0.11-0.05c0.31-0.02,0.63,0.09,0.9,0.28
			c0.02,0.01,0.03,0.03,0.05,0.04c0.01,0.02,0.02,0.03,0.03,0.05c0.06-0.03,0.14-0.08,0.18-0.07c0.33,0.08,0.71,0.1,0.98,0.21
			c0.05,0.02,0.07,0.12,0.11,0.15c-0.1,0.29-0.43,0.18-0.66,0.18c-0.19-0.04-0.45-0.03-0.58-0.2c-0.16,0.1-0.38-0.02-0.55-0.05
			c-0.18-0.07-0.36-0.11-0.48-0.2c-0.27-0.12-0.64-0.24-0.85-0.47c-0.04-0.04-0.07-0.09-0.1-0.13c0.09-0.01,0.12-0.01,0.18-0.03
			C40.14,30.68,40.22,30.67,40.29,30.67L40.29,30.67z"/>
		<path class="st3" d="M32.31,2.47c0.02,0.08,0.03,0.17,0.04,0.27v0.02l0.1-0.01c0.01,0.03,0.02,0.06,0.02,0.08
			c0.02,0.07,0.03,0.13,0.04,0.2c0.01,0.21,0.01,0.55-0.01,0.84c0,0,0,0,0,0C32.51,3.91,32.5,4,32.49,4
			c-0.02,0.21-0.1,0.58-0.15,0.83c0.01,0,0,0.11-0.02,0.17L32,5.82c0,0,2.79,1.78,3.6,2.43c0.83,0.66,2.12,2.01,2.5,2.61
			c0.04,0.06,0.07,0.11,0.09,0.16c0.18,0.36,0.12,0.57,0.03,0.89c-0.02,0.08-0.04,0.16-0.06,0.25c-0.04,0.16-0.02,0.26,0.03,0.35
			c0.11,0.18,0.39,0.24,0.68,0.37c0.08,0.04,0.16,0.07,0.24,0.11c0.54,0.26,2.53,1.43,3.21,2c0.63,0.53,1.94,1.7,2.7,2.55
			c0.21,0.24,0.38,0.46,0.48,0.63c0.31,0.52,0.26,1.28-0.14,1.63c-0.17,0.15-1.02,0.91-1.34,1.29c-0.09,0.11-0.13,0.24-0.12,0.37
			c0.01,0.39,0.35,0.82,0.5,1.01c0.23,0.29,0.42,0.72,0.44,0.79c0,0.04-0.04,0.21-0.08,0.36c-0.05,0.21-0.12,0.47-0.15,0.67
			c-0.06,0.32-0.23,0.38-0.41,0.41c-0.18,0.03-0.93,0.36-1.02,0.4l-0.08,0.04l0.04,0.08c0,0,0,0.01,0.01,0.02
			c0.02,0.08,0.12,0.45,0.05,0.89c-0.06,0.46-1.56,1.04-1.56,1.04c-0.06,0.17-0.8,0.45-1.09,0.52c-0.3,0.07-0.55,0-0.55,0
			c-0.08,0.07-0.02,0.26-0.04,1.13c-0.01,0.4-0.03,0.64,0,0.81c0,0.01,0.01,0.02,0.01,0.04c0,0.01,0,0.02,0.01,0.03
			c0.05,0.18,0.17,0.3,0.47,0.49l1.26,0.32c0.04,0,0.25,0.14,0.45,0.22c0.01,0,0.01,0,0.02,0c0.01,0,0.01,0,0.01,0.01
			c0.01,0,0.02,0.01,0.04,0.01h0c0.05,0.02,0.1,0.02,0.14,0.02c0.02,0,0.05,0,0.08,0c0.23,0.02,0.64,0.09,0.88,0.21
			c0.05,0.03,0.1,0.06,0.13,0.09c0.04,0.07,0.07,0.16,0.1,0.26c0.01,0.03,0.02,0.06,0.03,0.08c0,0,0,0.01,0,0.01
			c0.01,0.04,0.03,0.08,0.04,0.12c0.01,0.01,0.01,0.03,0.02,0.04c0,0,0,0,0,0c0.03,0.07,0.07,0.13,0.13,0.17
			c0.03,0.02,0.08,0.03,0.17,0.04c0.01,0,0.02,0,0.04,0c0.01,0,0.02,0,0.03,0c0.29,0.04,0.84,0.25,1.48,0.69
			c0.16,0.11,0.26,0.22,0.32,0.35c0,0.01,0.01,0.02,0.01,0.03c0.01,0.02,0.02,0.04,0.03,0.07c0.11,0.36-0.07,0.76-0.29,1.13
			c-0.03,0.06-0.06,0.1-0.07,0.13c-0.01,0.01-0.01,0.03-0.02,0.04c-0.11,0.24-0.34,0.74,0.39,1.73c0.79,1.07,0.75,1.18,0.46,1.9
			l-0.05,0.12c-0.36,0.91-1.18,1.24-1.38,1.36c-0.44,0.28-4.76,1.31-6.34,1.92c-1.76,0.68-3.05,1.38-3.61,1.94l0,0
			c-0.54,0.54-0.75,1.75-0.95,2.72v0.01c-0.18-0.12-0.36-0.25-0.56-0.38c0,0-0.12,0.17-0.4,0.23c-0.03,0.01-0.07,0.02-0.11,0.02
			l-0.19,0.03l-0.16,0.03l-1.07,0.19c-0.92,0.09-1.97,0.03-2.59-0.05c1.66-0.61,2.51-1.38,3.1-1.32l-1.67-1.05
			c-1.37-0.86-1.85-1.24-3.26-2.05c0,0-3.81,0.77-6.4-0.09c3.41,0.03,5.45-0.87,5.45-0.87c-0.2-0.23-0.28-0.24-0.52-0.45
			c-1.59-1.3-4.21-2.76-4.21-2.76c-1.39-0.8-3.4-1.44-5.13-1.3c-0.33,0.03-0.67,0.07-1,0.12L15,35.15c-0.13,0-0.25,0.01-0.37,0.02
			c-0.54,0.04-1.04,0.17-1.54,0.38c-0.04-0.04-0.08-0.08-0.13-0.12c-0.23-0.2-0.53-0.46-0.89-0.75c0,0,0,0-0.01,0
			c-0.12,0.16-0.24,0.32-0.37,0.46c0.54,0.49,0.83,0.79,0.83,0.79c0.11,0.11,0.21,0.22,0.33,0.34c0.67-0.44,1.33-0.66,2.16-0.64
			c-0.67,0.33-1,0.65-1.36,1.26l0.07,0.15c2.22-0.38,4.26-0.75,6.39,0.6c1.75,0.97,2.74,1.64,4.22,2.88
			c-4.16,0.9-6.48,0.41-6.48,0.41s2.57,1.19,4.42,1.52c2.2,0.4,4.51-0.17,4.51-0.17c1.09,0.71,2.53,1.55,3.61,2.29l-0.54,0.31
			c-1.53,0.73-3.9,1.46-5.41,1.06c0.13,0.12,1.71,0.51,1.89,0.53c0.13,0.02,0.27,0.03,0.41,0.05c0.07,0.01,0.15,0.02,0.22,0.02
			c0.06,0.01,0.13,0.01,0.19,0.02c0.1,0.01,0.21,0.02,0.31,0.03c0.04,0,0.07,0.01,0.11,0.01c0.12,0.01,0.23,0.02,0.35,0.03
			c0.02,0,0.05,0,0.07,0.01c0.13,0.01,0.25,0.02,0.38,0.03c0.01,0,0.03,0,0.05,0c0.13,0.01,0.26,0.02,0.4,0.03h0.03
			c0.14,0.01,0.27,0.02,0.41,0.03c0.01,0,0.01,0,0.02,0c0.14,0.01,0.28,0.01,0.42,0.02c0.01,0,0.01,0,0.02,0
			c0.14,0.01,0.28,0.01,0.42,0.01h0.01c0.14,0,0.29,0,0.43,0c0.14,0,0.29,0,0.43,0c0.81-0.02,1.59-0.08,2.31-0.23
			c0.62,0.45,0.99,0.72,1.63,1.13c0.1,0.07,0.21,0.14,0.3,0.2c0.03,0.02,0.06,0.04,0.09,0.06c0.07,0.05,0.14,0.1,0.21,0.14
			c0.03,0.02,0.06,0.04,0.08,0.06c0.09,0.07,0.18,0.12,0.26,0.18c0,0,0,0,0,0c0.09,0.06,0.17,0.13,0.26,0.18
			c0.02,0.02,0.05,0.04,0.07,0.05c0.06,0.05,0.12,0.09,0.18,0.13c0.02,0.02,0.04,0.03,0.06,0.04c0.16,0.12,0.32,0.23,0.46,0.35
			c0.01,0,0.01,0.01,0.02,0.01c0.09,0.07,0.17,0.13,0.26,0.19c0.02,0.02,0.04,0.03,0.07,0.05c0.05,0.04,0.1,0.08,0.15,0.11
			c0.05,0.03,0.09,0.07,0.14,0.1c0.02,0.02,0.05,0.04,0.07,0.05c0.04,0.03,0.08,0.05,0.11,0.08c0.02,0.02,0.04,0.04,0.07,0.05
			l0.14,0.1c0.01,0.01,0.02,0.02,0.03,0.02l0,0c0.06,0.04,0.12,0.09,0.18,0.13l0.01,0.01c0.06,0.04,0.11,0.07,0.17,0.11
			c0.02,0.01,0.04,0.02,0.05,0.03c0.04,0.03,0.09,0.05,0.13,0.08c0.06,0.04,0.12,0.07,0.18,0.1L40,51
			c-1.55,0.47-6.4-0.39-13.54-3.67l-0.14,0.04c9.2,5.59,17,7.78,17,7.78l-0.05,0.09c0,0-6.63-1.32-14.74-5.62
			c-5.31-2.81-10.23-6.2-14.37-10.38c0,0-0.31,0.28-0.38,0.63c0,0-0.21-0.65-0.26-1.22c0,0-0.44,0.08-0.82,0.55
			c0,0-0.12-0.81-0.02-1.54c0,0-0.81-0.85-1.76-1.78c-0.21-0.21-0.43-0.42-0.65-0.63c-0.15-0.14-0.3-0.29-0.45-0.42
			c-0.29,0.2-0.6,0.36-0.94,0.49c-0.49,0.18-1.02,0.29-1.58,0.29c-1.12,0-2.14-0.42-2.92-1.1c0.82,0.93,2.01,1.53,3.35,1.53
			c0.5,0,0.98-0.08,1.42-0.24c0.21,0.24,0.39,0.5,0.54,0.75c0.79,1.31,0.87,2.64,0.88,2.91v0c0,0.01,0,0.02,0,0.02v0.03
			c0.39-0.33,0.64-0.63,1.23-0.88c-0.13,1.44,0.03,2.29,0.16,3.41c0.23-0.41,1.05-1.75,1.05-1.75c0.11,0.83,0.15,2.72,0.67,3.49
			c0.2-0.91,0.65-1.97,0.65-1.97c0.07,0.29,0.77,1.27,0.77,1.27c1.58,1.87,3.38,3.4,5.38,4.8c1.96,1.33,3.88,2.49,5.86,3.52
			c0.71,0.37,1.42,0.72,2.15,1.06c0.97,0.45,1.97,0.88,2.99,1.27c0.64,0.25,1.3,0.49,1.97,0.72c0.89,0.31,1.81,0.6,2.75,0.88
			c6.4,1.88,12.33,0.84,12.33,0.84s-2.22-1.56-3.48-2.79c-0.67,0.05-1.96,0-2.61-0.2c0.38-0.19,0.76-0.55,1.84-0.58
			c0,0-1.15-0.59-1.61-1.24c-0.89,0.24-2.66,1.27-3.53,1.24c0.72-0.35,0.7-0.4,1.47-0.81l0.81-0.61l0.41-0.25
			c-0.42-0.18-0.84-0.39-1.2-0.56c-0.64-0.31-1.2-0.61-1.7-0.91c-0.4-0.23-0.76-0.46-1.1-0.7c2.65-1.33,5.03-3.13,7.04-5.28
			c4.12-4.43,6.65-10.36,6.65-16.87C51.53,14.86,43.31,5,32.31,2.47L32.31,2.47z M39.13,13.87c-0.23,0.09-0.5,0.2-0.66,0.27
			c-0.17,0.07-0.16,0.06-0.27,0.14c-0.13,0.07-0.27,0.14-0.42,0.18c-0.73,0.47-1.32,1.09-1.84,1.75c0.23,0.16,0.52,0.41,0.83,0.74
			c0.04-0.04,0.08-0.09,0.11-0.13c0.06-0.06,0.11-0.12,0.16-0.18c0.1-0.11,0.2-0.21,0.3-0.32c0.06-0.06,0.12-0.12,0.18-0.18
			c0.1-0.1,0.2-0.19,0.31-0.29c0.07-0.06,0.13-0.12,0.2-0.18c0.1-0.09,0.2-0.17,0.3-0.25c0.08-0.06,0.15-0.13,0.23-0.19
			c0.1-0.07,0.2-0.15,0.3-0.22c0.06-0.04,0.12-0.09,0.18-0.13c0.03-0.02,0.06-0.04,0.09-0.06c0.26-0.18,0.53-0.35,0.8-0.5
			c-0.08-0.05-0.16-0.1-0.25-0.15h0c-0.03-0.02-0.06-0.04-0.09-0.05c-0.06-0.03-0.11-0.06-0.17-0.09c0,0,0,0-0.01,0
			c-0.05-0.03-0.1-0.05-0.15-0.08C39.23,13.92,39.18,13.89,39.13,13.87L39.13,13.87z M40.96,14.99c-1.33,0.68-2.52,1.63-3.48,2.78
			l0.1,0.12c0.01,0.01,0.34,0.39,0.72,0.92c0.03-0.05,0.06-0.1,0.09-0.15c0.23-0.35,1.05-0.39,1.05-0.39
			c0.11-0.4,0.74-1.71,2.44-2.57v0l-0.29-0.24c-0.02-0.01-0.04-0.03-0.05-0.05c-0.09-0.07-0.19-0.14-0.28-0.22
			c0,0-0.01-0.01-0.01-0.01c-0.01-0.01-0.02-0.02-0.04-0.03c0,0,0,0-0.01,0h0C41.12,15.1,41.03,15.05,40.96,14.99L40.96,14.99z
			 M33.14,17.51c-2.92,2.33-5.01,5.69-5.74,9.37c0.74,0.06,1.44-0.45,2.13-1.27c0.99-2.82,2.83-5.35,5.22-7.15
			c-0.15-0.16-0.31-0.32-0.47-0.49c-0.15-0.15-0.3-0.31-0.45-0.46H33.14z M35.46,19.3c-2.27,1.84-4.03,4.32-5.01,7.08
			c-0.25,0.72-0.32,0.93-0.46,1.68c2.56,1.06,2.49-3.84,6.34-7.15c-0.17-0.51-0.48-1.01-0.6-1.19c-0.04-0.05-0.07-0.1-0.1-0.16
			C35.57,19.48,35.51,19.39,35.46,19.3z M7.73,27.14c-1.13,0-2.15,0.42-2.94,1.12l0.43,0.43C6,28,7.03,27.57,8.16,27.57
			c1.12,0,2.14,0.41,2.92,1.1C10.26,27.73,9.07,27.14,7.73,27.14z M9.82,29.04l-0.74,0.74l0.25,0.01c0.06,0,0.21,0.03,0.29,0.11
			c0.1,0.11,1.41,1.41,1.72,1.72c-0.08,0.09-0.23,0.25-0.37,0.39c-0.21,0.21-0.35,0.34-0.46,0.44l-1.7-1.7
			c-0.24-0.24-0.64,0-0.66,0.01c0,0-1.11,0.7-1.23,0.77l-0.05,0.03l-0.39-0.39l0.9-0.9c0,0,0.12-0.12,0.26-0.13
			c0,0,0.04-0.46,0.25-0.8l0.11-0.19l-0.2,0.12c-0.34,0.2-0.75,0.25-0.76,0.25c-0.01,0.12-0.16,0.24-0.16,0.24s-1.76,1.76-2.05,2.05
			l-0.51-0.51c0.12-0.14,0.29-0.32,0.52-0.54c0.33-0.3,0.45-0.37,0.52-0.41c0.25-0.14,0.49-0.17,0.49-0.17l-0.65-0.65l-0.03,0.03
			c-0.01,0.01-0.61,0.47-0.96,0.82c-0.43,0.43-0.95,1.14-0.96,1.15l-0.08,0.11l0.25-0.05c0.12-0.02,0.24,0.08,0.24,0.08l0.66,0.66
			l-0.15,0.15c-0.13,0.13-0.28,0.21-0.29,0.22l-0.1,0.05l0.39,0.13l0.1,0.1l0.12,0.41l0.06-0.12c0,0,0.09-0.16,0.22-0.3l0.15-0.15
			l0.59,0.59l0.09,0.08c0,0,0.16,0.16,0.13,0.34c-0.03,0.18-0.05,0.3-0.05,0.3l0.01-0.01l1.07-1.07c0,0-0.14,0.02-0.32,0.05
			c-0.18,0.03-0.35-0.15-0.35-0.15l-0.08-0.08l-0.57-0.57l0.62-0.62l0.54,0.55h0c0,0,0.29,0.27,0.67,0.04c0,0,1.07-0.67,1.29-0.8
			l0.4,0.4c-0.1,0.14-0.39,0.45-0.52,0.56v0C7.76,33.02,7.31,33,7.31,33l0.68,0.68c0,0,0.55-0.4,0.88-0.73
			c0.25-0.25,0.44-0.47,0.52-0.57l1.07,1.06l0.09-0.08l0,0c0.09-0.07,0.57-0.44,0.96-0.83c0.35-0.35,0.84-1,0.84-1l0.19-0.25
			l-0.24,0.03c0,0-0.17,0.03-0.32-0.11L9.82,29.04L9.82,29.04z"/>
	</g>
</g>
</svg>
